<svg width="32" height="32" viewBox="0 0 32 32" fill="none" xmlns="http://www.w3.org/2000/svg">
  <!-- ClayGrounds Logo - Simplified version for favicon -->
  <rect width="32" height="32" rx="6" fill="#003D1E"/>
  <path d="M8 12C8 10.8954 8.89543 10 10 10H22C23.1046 10 24 10.8954 24 12V20C24 21.1046 23.1046 22 22 22H10C8.89543 22 8 21.1046 8 20V12Z" fill="#DCFF00"/>
  <circle cx="12" cy="16" r="2" fill="#003D1E"/>
  <circle cx="20" cy="16" r="2" fill="#003D1E"/>
  <path d="M14 18C14 17.4477 14.4477 17 15 17H17C17.5523 17 18 17.4477 18 18V19C18 19.5523 17.5523 20 17 20H15C14.4477 20 14 19.5523 14 19V18Z" fill="#003D1E"/>
</svg>